ply
format ascii 1.0
element vertex 275
property float x
property float y
property float z
property uchar red
property uchar green
property uchar blue
property float f_dc_0
property float f_dc_1
property float f_dc_2
property float opacity
property float scale_0
property float scale_1
property float scale_2
property float rot_0
property float rot_1
property float rot_2
property float rot_3
end_header
-1.28000 0.02000 -1.28000 194 12 5 0.92354 -1.60703 -1.69723 1.51635 -2.20727 -2.20727 -2.20727 1 0 0 0
-1.28000 0.02000 -0.96000 194 12 5 0.92354 -1.60703 -1.69723 1.51635 -2.20727 -2.20727 -2.20727 1 0 0 0
-1.28000 0.02000 -0.64000 194 12 5 0.92354 -1.60703 -1.69723 1.51635 -2.20727 -2.20727 -2.20727 1 0 0 0
-1.28000 0.02000 -0.32000 194 12 5 0.92354 -1.60703 -1.69723 1.51635 -2.20727 -2.20727 -2.20727 1 0 0 0
-1.28000 0.02000 0.00000 194 12 5 0.92354 -1.60703 -1.69723 1.51635 -2.20727 -2.20727 -2.20727 1 0 0 0
-1.28000 0.02000 0.32000 194 12 5 0.92354 -1.60703 -1.69723 1.51635 -2.20727 -2.20727 -2.20727 1 0 0 0
-1.28000 0.02000 0.64000 194 12 5 0.92354 -1.60703 -1.69723 1.51635 -2.20727 -2.20727 -2.20727 1 0 0 0
-1.28000 0.02000 0.96000 194 12 5 0.92354 -1.60703 -1.69723 1.51635 -2.20727 -2.20727 -2.20727 1 0 0 0
-1.28000 0.02000 1.28000 194 12 5 0.92354 -1.60703 -1.69723 1.51635 -2.20727 -2.20727 -2.20727 1 0 0 0
-0.96000 0.02000 -1.28000 194 12 5 0.92354 -1.60703 -1.69723 1.51635 -2.20727 -2.20727 -2.20727 1 0 0 0
-0.96000 0.02000 -0.96000 194 12 5 0.92354 -1.60703 -1.69723 1.51635 -2.20727 -2.20727 -2.20727 1 0 0 0
-0.96000 0.02000 -0.64000 194 12 5 0.92354 -1.60703 -1.69723 1.51635 -2.20727 -2.20727 -2.20727 1 0 0 0
-0.96000 0.02000 -0.32000 194 12 5 0.92354 -1.60703 -1.69723 1.51635 -2.20727 -2.20727 -2.20727 1 0 0 0
-0.96000 0.02000 0.00000 194 12 5 0.92354 -1.60703 -1.69723 1.51635 -2.20727 -2.20727 -2.20727 1 0 0 0
-0.96000 0.02000 0.32000 194 12 5 0.92354 -1.60703 -1.69723 1.51635 -2.20727 -2.20727 -2.20727 1 0 0 0
-0.96000 0.02000 0.64000 194 12 5 0.92354 -1.60703 -1.69723 1.51635 -2.20727 -2.20727 -2.20727 1 0 0 0
-0.96000 0.02000 0.96000 194 12 5 0.92354 -1.60703 -1.69723 1.51635 -2.20727 -2.20727 -2.20727 1 0 0 0
-0.96000 0.02000 1.28000 194 12 5 0.92354 -1.60703 -1.69723 1.51635 -2.20727 -2.20727 -2.20727 1 0 0 0
-0.64000 0.02000 -1.28000 194 12 5 0.92354 -1.60703 -1.69723 1.51635 -2.20727 -2.20727 -2.20727 1 0 0 0
-0.64000 0.02000 -0.96000 194 12 5 0.92354 -1.60703 -1.69723 1.51635 -2.20727 -2.20727 -2.20727 1 0 0 0
-0.64000 0.02000 -0.64000 194 12 5 0.92354 -1.60703 -1.69723 1.51635 -2.20727 -2.20727 -2.20727 1 0 0 0
-0.64000 0.02000 -0.32000 194 12 5 0.92354 -1.60703 -1.69723 1.51635 -2.20727 -2.20727 -2.20727 1 0 0 0
-0.64000 0.02000 0.00000 194 12 5 0.92354 -1.60703 -1.69723 1.51635 -2.20727 -2.20727 -2.20727 1 0 0 0
-0.64000 0.02000 0.32000 194 12 5 0.92354 -1.60703 -1.69723 1.51635 -2.20727 -2.20727 -2.20727 1 0 0 0
-0.64000 0.02000 0.64000 194 12 5 0.92354 -1.60703 -1.69723 1.51635 -2.20727 -2.20727 -2.20727 1 0 0 0
-0.64000 0.02000 0.96000 194 12 5 0.92354 -1.60703 -1.69723 1.51635 -2.20727 -2.20727 -2.20727 1 0 0 0
-0.64000 0.02000 1.28000 194 12 5 0.92354 -1.60703 -1.69723 1.51635 -2.20727 -2.20727 -2.20727 1 0 0 0
-0.32000 0.02000 -1.28000 194 12 5 0.92354 -1.60703 -1.69723 1.51635 -2.20727 -2.20727 -2.20727 1 0 0 0
-0.32000 0.02000 -0.96000 194 12 5 0.92354 -1.60703 -1.69723 1.51635 -2.20727 -2.20727 -2.20727 1 0 0 0
-0.32000 0.02000 -0.64000 194 12 5 0.92354 -1.60703 -1.69723 1.51635 -2.20727 -2.20727 -2.20727 1 0 0 0
-0.32000 0.02000 -0.32000 194 12 5 0.92354 -1.60703 -1.69723 1.51635 -2.20727 -2.20727 -2.20727 1 0 0 0
-0.32000 0.02000 0.00000 194 12 5 0.92354 -1.60703 -1.69723 1.51635 -2.20727 -2.20727 -2.20727 1 0 0 0
-0.32000 0.02000 0.32000 194 12 5 0.92354 -1.60703 -1.69723 1.51635 -2.20727 -2.20727 -2.20727 1 0 0 0
-0.32000 0.02000 0.64000 194 12 5 0.92354 -1.60703 -1.69723 1.51635 -2.20727 -2.20727 -2.20727 1 0 0 0
-0.32000 0.02000 0.96000 194 12 5 0.92354 -1.60703 -1.69723 1.51635 -2.20727 -2.20727 -2.20727 1 0 0 0
-0.32000 0.02000 1.28000 194 12 5 0.92354 -1.60703 -1.69723 1.51635 -2.20727 -2.20727 -2.20727 1 0 0 0
0.00000 0.02000 -1.28000 194 12 5 0.92354 -1.60703 -1.69723 1.51635 -2.20727 -2.20727 -2.20727 1 0 0 0
0.00000 0.02000 -0.96000 194 12 5 0.92354 -1.60703 -1.69723 1.51635 -2.20727 -2.20727 -2.20727 1 0 0 0
0.00000 0.02000 -0.64000 194 12 5 0.92354 -1.60703 -1.69723 1.51635 -2.20727 -2.20727 -2.20727 1 0 0 0
0.00000 0.02000 -0.32000 194 12 5 0.92354 -1.60703 -1.69723 1.51635 -2.20727 -2.20727 -2.20727 1 0 0 0
0.00000 0.02000 0.00000 194 12 5 0.92354 -1.60703 -1.69723 1.51635 -2.20727 -2.20727 -2.20727 1 0 0 0
0.00000 0.02000 0.32000 194 12 5 0.92354 -1.60703 -1.69723 1.51635 -2.20727 -2.20727 -2.20727 1 0 0 0
0.00000 0.02000 0.64000 194 12 5 0.92354 -1.60703 -1.69723 1.51635 -2.20727 -2.20727 -2.20727 1 0 0 0
0.00000 0.02000 0.96000 194 12 5 0.92354 -1.60703 -1.69723 1.51635 -2.20727 -2.20727 -2.20727 1 0 0 0
0.00000 0.02000 1.28000 194 12 5 0.92354 -1.60703 -1.69723 1.51635 -2.20727 -2.20727 -2.20727 1 0 0 0
0.32000 0.02000 -1.28000 194 12 5 0.92354 -1.60703 -1.69723 1.51635 -2.20727 -2.20727 -2.20727 1 0 0 0
0.32000 0.02000 -0.96000 194 12 5 0.92354 -1.60703 -1.69723 1.51635 -2.20727 -2.20727 -2.20727 1 0 0 0
0.32000 0.02000 -0.64000 194 12 5 0.92354 -1.60703 -1.69723 1.51635 -2.20727 -2.20727 -2.20727 1 0 0 0
0.32000 0.02000 -0.32000 194 12 5 0.92354 -1.60703 -1.69723 1.51635 -2.20727 -2.20727 -2.20727 1 0 0 0
0.32000 0.02000 0.00000 194 12 5 0.92354 -1.60703 -1.69723 1.51635 -2.20727 -2.20727 -2.20727 1 0 0 0
0.32000 0.02000 0.32000 194 12 5 0.92354 -1.60703 -1.69723 1.51635 -2.20727 -2.20727 -2.20727 1 0 0 0
0.32000 0.02000 0.64000 194 12 5 0.92354 -1.60703 -1.69723 1.51635 -2.20727 -2.20727 -2.20727 1 0 0 0
0.32000 0.02000 0.96000 194 12 5 0.92354 -1.60703 -1.69723 1.51635 -2.20727 -2.20727 -2.20727 1 0 0 0
0.32000 0.02000 1.28000 194 12 5 0.92354 -1.60703 -1.69723 1.51635 -2.20727 -2.20727 -2.20727 1 0 0 0
0.64000 0.02000 -1.28000 194 12 5 0.92354 -1.60703 -1.69723 1.51635 -2.20727 -2.20727 -2.20727 1 0 0 0
0.64000 0.02000 -0.96000 194 12 5 0.92354 -1.60703 -1.69723 1.51635 -2.20727 -2.20727 -2.20727 1 0 0 0
0.64000 0.02000 -0.64000 194 12 5 0.92354 -1.60703 -1.69723 1.51635 -2.20727 -2.20727 -2.20727 1 0 0 0
0.64000 0.02000 -0.32000 194 12 5 0.92354 -1.60703 -1.69723 1.51635 -2.20727 -2.20727 -2.20727 1 0 0 0
0.64000 0.02000 0.00000 194 12 5 0.92354 -1.60703 -1.69723 1.51635 -2.20727 -2.20727 -2.20727 1 0 0 0
0.64000 0.02000 0.32000 194 12 5 0.92354 -1.60703 -1.69723 1.51635 -2.20727 -2.20727 -2.20727 1 0 0 0
0.64000 0.02000 0.64000 194 12 5 0.92354 -1.60703 -1.69723 1.51635 -2.20727 -2.20727 -2.20727 1 0 0 0
0.64000 0.02000 0.96000 194 12 5 0.92354 -1.60703 -1.69723 1.51635 -2.20727 -2.20727 -2.20727 1 0 0 0
0.64000 0.02000 1.28000 194 12 5 0.92354 -1.60703 -1.69723 1.51635 -2.20727 -2.20727 -2.20727 1 0 0 0
0.96000 0.02000 -1.28000 194 12 5 0.92354 -1.60703 -1.69723 1.51635 -2.20727 -2.20727 -2.20727 1 0 0 0
0.96000 0.02000 -0.96000 194 12 5 0.92354 -1.60703 -1.69723 1.51635 -2.20727 -2.20727 -2.20727 1 0 0 0
0.96000 0.02000 -0.64000 194 12 5 0.92354 -1.60703 -1.69723 1.51635 -2.20727 -2.20727 -2.20727 1 0 0 0
0.96000 0.02000 -0.32000 194 12 5 0.92354 -1.60703 -1.69723 1.51635 -2.20727 -2.20727 -2.20727 1 0 0 0
0.96000 0.02000 0.00000 194 12 5 0.92354 -1.60703 -1.69723 1.51635 -2.20727 -2.20727 -2.20727 1 0 0 0
0.96000 0.02000 0.32000 194 12 5 0.92354 -1.60703 -1.69723 1.51635 -2.20727 -2.20727 -2.20727 1 0 0 0
0.96000 0.02000 0.64000 194 12 5 0.92354 -1.60703 -1.69723 1.51635 -2.20727 -2.20727 -2.20727 1 0 0 0
0.96000 0.02000 0.96000 194 12 5 0.92354 -1.60703 -1.69723 1.51635 -2.20727 -2.20727 -2.20727 1 0 0 0
0.96000 0.02000 1.28000 194 12 5 0.92354 -1.60703 -1.69723 1.51635 -2.20727 -2.20727 -2.20727 1 0 0 0
1.28000 0.02000 -1.28000 194 12 5 0.92354 -1.60703 -1.69723 1.51635 -2.20727 -2.20727 -2.20727 1 0 0 0
1.28000 0.02000 -0.96000 194 12 5 0.92354 -1.60703 -1.69723 1.51635 -2.20727 -2.20727 -2.20727 1 0 0 0
1.28000 0.02000 -0.64000 194 12 5 0.92354 -1.60703 -1.69723 1.51635 -2.20727 -2.20727 -2.20727 1 0 0 0
1.28000 0.02000 -0.32000 194 12 5 0.92354 -1.60703 -1.69723 1.51635 -2.20727 -2.20727 -2.20727 1 0 0 0
1.28000 0.02000 0.00000 194 12 5 0.92354 -1.60703 -1.69723 1.51635 -2.20727 -2.20727 -2.20727 1 0 0 0
1.28000 0.02000 0.32000 194 12 5 0.92354 -1.60703 -1.69723 1.51635 -2.20727 -2.20727 -2.20727 1 0 0 0
1.28000 0.02000 0.64000 194 12 5 0.92354 -1.60703 -1.69723 1.51635 -2.20727 -2.20727 -2.20727 1 0 0 0
1.28000 0.02000 0.96000 194 12 5 0.92354 -1.60703 -1.69723 1.51635 -2.20727 -2.20727 -2.20727 1 0 0 0
1.28000 0.02000 1.28000 194 12 5 0.92354 -1.60703 -1.69723 1.51635 -2.20727 -2.20727 -2.20727 1 0 0 0
-1.28000 0.18000 -1.52000 0 202 46 -1.77245 1.03262 -1.13024 1.51635 -2.12026 -2.12026 -2.12026 1 0 0 0
-1.52000 0.18000 -1.28000 170 0 242 0.58628 -1.77245 1.58566 1.51635 -2.12026 -2.12026 -2.12026 1 0 0 0
1.52000 0.18000 -1.28000 0 200 255 -1.77245 1.00512 1.77245 1.51635 -2.12026 -2.12026 -2.12026 1 0 0 0
-1.28000 0.46000 -1.52000 0 202 46 -1.77245 1.03262 -1.13024 1.51635 -2.12026 -2.12026 -2.12026 1 0 0 0
-1.52000 0.46000 -1.28000 170 0 242 0.58628 -1.77245 1.58566 1.51635 -2.12026 -2.12026 -2.12026 1 0 0 0
1.52000 0.46000 -1.28000 0 200 255 -1.77245 1.00512 1.77245 1.51635 -2.12026 -2.12026 -2.12026 1 0 0 0
-1.28000 0.74000 -1.52000 0 202 46 -1.77245 1.03262 -1.13024 1.51635 -2.12026 -2.12026 -2.12026 1 0 0 0
-1.52000 0.74000 -1.28000 170 0 242 0.58628 -1.77245 1.58566 1.51635 -2.12026 -2.12026 -2.12026 1 0 0 0
1.52000 0.74000 -1.28000 0 200 255 -1.77245 1.00512 1.77245 1.51635 -2.12026 -2.12026 -2.12026 1 0 0 0
-1.28000 1.02000 -1.52000 0 202 46 -1.77245 1.03262 -1.13024 1.51635 -2.12026 -2.12026 -2.12026 1 0 0 0
-1.52000 1.02000 -1.28000 170 0 242 0.58628 -1.77245 1.58566 1.51635 -2.12026 -2.12026 -2.12026 1 0 0 0
1.52000 1.02000 -1.28000 0 200 255 -1.77245 1.00512 1.77245 1.51635 -2.12026 -2.12026 -2.12026 1 0 0 0
-1.28000 1.30000 -1.52000 0 202 46 -1.77245 1.03262 -1.13024 1.51635 -2.12026 -2.12026 -2.12026 1 0 0 0
-1.52000 1.30000 -1.28000 170 0 242 0.58628 -1.77245 1.58566 1.51635 -2.12026 -2.12026 -2.12026 1 0 0 0
1.52000 1.30000 -1.28000 0 200 255 -1.77245 1.00512 1.77245 1.51635 -2.12026 -2.12026 -2.12026 1 0 0 0
-1.28000 1.58000 -1.52000 0 202 46 -1.77245 1.03262 -1.13024 1.51635 -2.12026 -2.12026 -2.12026 1 0 0 0
-1.52000 1.58000 -1.28000 170 0 242 0.58628 -1.77245 1.58566 1.51635 -2.12026 -2.12026 -2.12026 1 0 0 0
1.52000 1.58000 -1.28000 0 200 255 -1.77245 1.00512 1.77245 1.51635 -2.12026 -2.12026 -2.12026 1 0 0 0
-1.28000 1.86000 -1.52000 0 202 46 -1.77245 1.03262 -1.13024 1.51635 -2.12026 -2.12026 -2.12026 1 0 0 0
-1.52000 1.86000 -1.28000 170 0 242 0.58628 -1.77245 1.58566 1.51635 -2.12026 -2.12026 -2.12026 1 0 0 0
1.52000 1.86000 -1.28000 0 200 255 -1.77245 1.00512 1.77245 1.51635 -2.12026 -2.12026 -2.12026 1 0 0 0
-0.96000 0.18000 -1.52000 0 202 46 -1.77245 1.03262 -1.13024 1.51635 -2.12026 -2.12026 -2.12026 1 0 0 0
-1.52000 0.18000 -0.96000 170 0 242 0.58628 -1.77245 1.58566 1.51635 -2.12026 -2.12026 -2.12026 1 0 0 0
1.52000 0.18000 -0.96000 0 200 255 -1.77245 1.00512 1.77245 1.51635 -2.12026 -2.12026 -2.12026 1 0 0 0
-0.96000 0.46000 -1.52000 0 202 46 -1.77245 1.03262 -1.13024 1.51635 -2.12026 -2.12026 -2.12026 1 0 0 0
-1.52000 0.46000 -0.96000 170 0 242 0.58628 -1.77245 1.58566 1.51635 -2.12026 -2.12026 -2.12026 1 0 0 0
1.52000 0.46000 -0.96000 0 200 255 -1.77245 1.00512 1.77245 1.51635 -2.12026 -2.12026 -2.12026 1 0 0 0
-0.96000 0.74000 -1.52000 0 202 46 -1.77245 1.03262 -1.13024 1.51635 -2.12026 -2.12026 -2.12026 1 0 0 0
-1.52000 0.74000 -0.96000 170 0 242 0.58628 -1.77245 1.58566 1.51635 -2.12026 -2.12026 -2.12026 1 0 0 0
1.52000 0.74000 -0.96000 0 200 255 -1.77245 1.00512 1.77245 1.51635 -2.12026 -2.12026 -2.12026 1 0 0 0
-0.96000 1.02000 -1.52000 0 202 46 -1.77245 1.03262 -1.13024 1.51635 -2.12026 -2.12026 -2.12026 1 0 0 0
-1.52000 1.02000 -0.96000 170 0 242 0.58628 -1.77245 1.58566 1.51635 -2.12026 -2.12026 -2.12026 1 0 0 0
1.52000 1.02000 -0.96000 0 200 255 -1.77245 1.00512 1.77245 1.51635 -2.12026 -2.12026 -2.12026 1 0 0 0
-0.96000 1.30000 -1.52000 0 202 46 -1.77245 1.03262 -1.13024 1.51635 -2.12026 -2.12026 -2.12026 1 0 0 0
-1.52000 1.30000 -0.96000 170 0 242 0.58628 -1.77245 1.58566 1.51635 -2.12026 -2.12026 -2.12026 1 0 0 0
1.52000 1.30000 -0.96000 0 200 255 -1.77245 1.00512 1.77245 1.51635 -2.12026 -2.12026 -2.12026 1 0 0 0
-0.96000 1.58000 -1.52000 0 202 46 -1.77245 1.03262 -1.13024 1.51635 -2.12026 -2.12026 -2.12026 1 0 0 0
-1.52000 1.58000 -0.96000 170 0 242 0.58628 -1.77245 1.58566 1.51635 -2.12026 -2.12026 -2.12026 1 0 0 0
1.52000 1.58000 -0.96000 0 200 255 -1.77245 1.00512 1.77245 1.51635 -2.12026 -2.12026 -2.12026 1 0 0 0
-0.96000 1.86000 -1.52000 0 202 46 -1.77245 1.03262 -1.13024 1.51635 -2.12026 -2.12026 -2.12026 1 0 0 0
-1.52000 1.86000 -0.96000 170 0 242 0.58628 -1.77245 1.58566 1.51635 -2.12026 -2.12026 -2.12026 1 0 0 0
1.52000 1.86000 -0.96000 0 200 255 -1.77245 1.00512 1.77245 1.51635 -2.12026 -2.12026 -2.12026 1 0 0 0
-0.64000 0.18000 -1.52000 0 202 46 -1.77245 1.03262 -1.13024 1.51635 -2.12026 -2.12026 -2.12026 1 0 0 0
-1.52000 0.18000 -0.64000 170 0 242 0.58628 -1.77245 1.58566 1.51635 -2.12026 -2.12026 -2.12026 1 0 0 0
1.52000 0.18000 -0.64000 0 200 255 -1.77245 1.00512 1.77245 1.51635 -2.12026 -2.12026 -2.12026 1 0 0 0
-0.64000 0.46000 -1.52000 0 202 46 -1.77245 1.03262 -1.13024 1.51635 -2.12026 -2.12026 -2.12026 1 0 0 0
-1.52000 0.46000 -0.64000 170 0 242 0.58628 -1.77245 1.58566 1.51635 -2.12026 -2.12026 -2.12026 1 0 0 0
1.52000 0.46000 -0.64000 0 200 255 -1.77245 1.00512 1.77245 1.51635 -2.12026 -2.12026 -2.12026 1 0 0 0
-0.64000 0.74000 -1.52000 0 202 46 -1.77245 1.03262 -1.13024 1.51635 -2.12026 -2.12026 -2.12026 1 0 0 0
-1.52000 0.74000 -0.64000 170 0 242 0.58628 -1.77245 1.58566 1.51635 -2.12026 -2.12026 -2.12026 1 0 0 0
1.52000 0.74000 -0.64000 0 200 255 -1.77245 1.00512 1.77245 1.51635 -2.12026 -2.12026 -2.12026 1 0 0 0
-0.64000 1.02000 -1.52000 0 202 46 -1.77245 1.03262 -1.13024 1.51635 -2.12026 -2.12026 -2.12026 1 0 0 0
-1.52000 1.02000 -0.64000 170 0 242 0.58628 -1.77245 1.58566 1.51635 -2.12026 -2.12026 -2.12026 1 0 0 0
1.52000 1.02000 -0.64000 0 200 255 -1.77245 1.00512 1.77245 1.51635 -2.12026 -2.12026 -2.12026 1 0 0 0
-0.64000 1.30000 -1.52000 0 202 46 -1.77245 1.03262 -1.13024 1.51635 -2.12026 -2.12026 -2.12026 1 0 0 0
-1.52000 1.30000 -0.64000 170 0 242 0.58628 -1.77245 1.58566 1.51635 -2.12026 -2.12026 -2.12026 1 0 0 0
1.52000 1.30000 -0.64000 0 200 255 -1.77245 1.00512 1.77245 1.51635 -2.12026 -2.12026 -2.12026 1 0 0 0
-0.64000 1.58000 -1.52000 0 202 46 -1.77245 1.03262 -1.13024 1.51635 -2.12026 -2.12026 -2.12026 1 0 0 0
-1.52000 1.58000 -0.64000 170 0 242 0.58628 -1.77245 1.58566 1.51635 -2.12026 -2.12026 -2.12026 1 0 0 0
1.52000 1.58000 -0.64000 0 200 255 -1.77245 1.00512 1.77245 1.51635 -2.12026 -2.12026 -2.12026 1 0 0 0
-0.64000 1.86000 -1.52000 0 202 46 -1.77245 1.03262 -1.13024 1.51635 -2.12026 -2.12026 -2.12026 1 0 0 0
-1.52000 1.86000 -0.64000 170 0 242 0.58628 -1.77245 1.58566 1.51635 -2.12026 -2.12026 -2.12026 1 0 0 0
1.52000 1.86000 -0.64000 0 200 255 -1.77245 1.00512 1.77245 1.51635 -2.12026 -2.12026 -2.12026 1 0 0 0
-0.32000 0.18000 -1.52000 0 202 46 -1.77245 1.03262 -1.13024 1.51635 -2.12026 -2.12026 -2.12026 1 0 0 0
-1.52000 0.18000 -0.32000 170 0 242 0.58628 -1.77245 1.58566 1.51635 -2.12026 -2.12026 -2.12026 1 0 0 0
1.52000 0.18000 -0.32000 0 200 255 -1.77245 1.00512 1.77245 1.51635 -2.12026 -2.12026 -2.12026 1 0 0 0
-0.32000 0.46000 -1.52000 0 202 46 -1.77245 1.03262 -1.13024 1.51635 -2.12026 -2.12026 -2.12026 1 0 0 0
-1.52000 0.46000 -0.32000 170 0 242 0.58628 -1.77245 1.58566 1.51635 -2.12026 -2.12026 -2.12026 1 0 0 0
1.52000 0.46000 -0.32000 0 200 255 -1.77245 1.00512 1.77245 1.51635 -2.12026 -2.12026 -2.12026 1 0 0 0
-0.32000 0.74000 -1.52000 0 202 46 -1.77245 1.03262 -1.13024 1.51635 -2.12026 -2.12026 -2.12026 1 0 0 0
-1.52000 0.74000 -0.32000 170 0 242 0.58628 -1.77245 1.58566 1.51635 -2.12026 -2.12026 -2.12026 1 0 0 0
1.52000 0.74000 -0.32000 0 200 255 -1.77245 1.00512 1.77245 1.51635 -2.12026 -2.12026 -2.12026 1 0 0 0
-0.32000 1.02000 -1.52000 0 202 46 -1.77245 1.03262 -1.13024 1.51635 -2.12026 -2.12026 -2.12026 1 0 0 0
-1.52000 1.02000 -0.32000 170 0 242 0.58628 -1.77245 1.58566 1.51635 -2.12026 -2.12026 -2.12026 1 0 0 0
1.52000 1.02000 -0.32000 0 200 255 -1.77245 1.00512 1.77245 1.51635 -2.12026 -2.12026 -2.12026 1 0 0 0
-0.32000 1.30000 -1.52000 0 202 46 -1.77245 1.03262 -1.13024 1.51635 -2.12026 -2.12026 -2.12026 1 0 0 0
-1.52000 1.30000 -0.32000 170 0 242 0.58628 -1.77245 1.58566 1.51635 -2.12026 -2.12026 -2.12026 1 0 0 0
1.52000 1.30000 -0.32000 0 200 255 -1.77245 1.00512 1.77245 1.51635 -2.12026 -2.12026 -2.12026 1 0 0 0
-0.32000 1.58000 -1.52000 0 202 46 -1.77245 1.03262 -1.13024 1.51635 -2.12026 -2.12026 -2.12026 1 0 0 0
-1.52000 1.58000 -0.32000 170 0 242 0.58628 -1.77245 1.58566 1.51635 -2.12026 -2.12026 -2.12026 1 0 0 0
1.52000 1.58000 -0.32000 0 200 255 -1.77245 1.00512 1.77245 1.51635 -2.12026 -2.12026 -2.12026 1 0 0 0
-0.32000 1.86000 -1.52000 0 202 46 -1.77245 1.03262 -1.13024 1.51635 -2.12026 -2.12026 -2.12026 1 0 0 0
-1.52000 1.86000 -0.32000 170 0 242 0.58628 -1.77245 1.58566 1.51635 -2.12026 -2.12026 -2.12026 1 0 0 0
1.52000 1.86000 -0.32000 0 200 255 -1.77245 1.00512 1.77245 1.51635 -2.12026 -2.12026 -2.12026 1 0 0 0
0.00000 0.18000 -1.52000 0 202 46 -1.77245 1.03262 -1.13024 1.51635 -2.12026 -2.12026 -2.12026 1 0 0 0
-1.52000 0.18000 0.00000 170 0 242 0.58628 -1.77245 1.58566 1.51635 -2.12026 -2.12026 -2.12026 1 0 0 0
1.52000 0.18000 0.00000 0 200 255 -1.77245 1.00512 1.77245 1.51635 -2.12026 -2.12026 -2.12026 1 0 0 0
0.00000 0.46000 -1.52000 0 202 46 -1.77245 1.03262 -1.13024 1.51635 -2.12026 -2.12026 -2.12026 1 0 0 0
-1.52000 0.46000 0.00000 170 0 242 0.58628 -1.77245 1.58566 1.51635 -2.12026 -2.12026 -2.12026 1 0 0 0
1.52000 0.46000 0.00000 0 200 255 -1.77245 1.00512 1.77245 1.51635 -2.12026 -2.12026 -2.12026 1 0 0 0
0.00000 0.74000 -1.52000 0 202 46 -1.77245 1.03262 -1.13024 1.51635 -2.12026 -2.12026 -2.12026 1 0 0 0
-1.52000 0.74000 0.00000 170 0 242 0.58628 -1.77245 1.58566 1.51635 -2.12026 -2.12026 -2.12026 1 0 0 0
1.52000 0.74000 0.00000 0 200 255 -1.77245 1.00512 1.77245 1.51635 -2.12026 -2.12026 -2.12026 1 0 0 0
0.00000 1.02000 -1.52000 0 202 46 -1.77245 1.03262 -1.13024 1.51635 -2.12026 -2.12026 -2.12026 1 0 0 0
-1.52000 1.02000 0.00000 170 0 242 0.58628 -1.77245 1.58566 1.51635 -2.12026 -2.12026 -2.12026 1 0 0 0
1.52000 1.02000 0.00000 0 200 255 -1.77245 1.00512 1.77245 1.51635 -2.12026 -2.12026 -2.12026 1 0 0 0
0.00000 1.30000 -1.52000 0 202 46 -1.77245 1.03262 -1.13024 1.51635 -2.12026 -2.12026 -2.12026 1 0 0 0
-1.52000 1.30000 0.00000 170 0 242 0.58628 -1.77245 1.58566 1.51635 -2.12026 -2.12026 -2.12026 1 0 0 0
1.52000 1.30000 0.00000 0 200 255 -1.77245 1.00512 1.77245 1.51635 -2.12026 -2.12026 -2.12026 1 0 0 0
0.00000 1.58000 -1.52000 0 202 46 -1.77245 1.03262 -1.13024 1.51635 -2.12026 -2.12026 -2.12026 1 0 0 0
-1.52000 1.58000 0.00000 170 0 242 0.58628 -1.77245 1.58566 1.51635 -2.12026 -2.12026 -2.12026 1 0 0 0
1.52000 1.58000 0.00000 0 200 255 -1.77245 1.00512 1.77245 1.51635 -2.12026 -2.12026 -2.12026 1 0 0 0
0.00000 1.86000 -1.52000 0 202 46 -1.77245 1.03262 -1.13024 1.51635 -2.12026 -2.12026 -2.12026 1 0 0 0
-1.52000 1.86000 0.00000 170 0 242 0.58628 -1.77245 1.58566 1.51635 -2.12026 -2.12026 -2.12026 1 0 0 0
1.52000 1.86000 0.00000 0 200 255 -1.77245 1.00512 1.77245 1.51635 -2.12026 -2.12026 -2.12026 1 0 0 0
0.32000 0.18000 -1.52000 0 202 46 -1.77245 1.03262 -1.13024 1.51635 -2.12026 -2.12026 -2.12026 1 0 0 0
-1.52000 0.18000 0.32000 170 0 242 0.58628 -1.77245 1.58566 1.51635 -2.12026 -2.12026 -2.12026 1 0 0 0
1.52000 0.18000 0.32000 0 200 255 -1.77245 1.00512 1.77245 1.51635 -2.12026 -2.12026 -2.12026 1 0 0 0
0.32000 0.46000 -1.52000 0 202 46 -1.77245 1.03262 -1.13024 1.51635 -2.12026 -2.12026 -2.12026 1 0 0 0
-1.52000 0.46000 0.32000 170 0 242 0.58628 -1.77245 1.58566 1.51635 -2.12026 -2.12026 -2.12026 1 0 0 0
1.52000 0.46000 0.32000 0 200 255 -1.77245 1.00512 1.77245 1.51635 -2.12026 -2.12026 -2.12026 1 0 0 0
0.32000 0.74000 -1.52000 0 202 46 -1.77245 1.03262 -1.13024 1.51635 -2.12026 -2.12026 -2.12026 1 0 0 0
-1.52000 0.74000 0.32000 170 0 242 0.58628 -1.77245 1.58566 1.51635 -2.12026 -2.12026 -2.12026 1 0 0 0
1.52000 0.74000 0.32000 0 200 255 -1.77245 1.00512 1.77245 1.51635 -2.12026 -2.12026 -2.12026 1 0 0 0
0.32000 1.02000 -1.52000 0 202 46 -1.77245 1.03262 -1.13024 1.51635 -2.12026 -2.12026 -2.12026 1 0 0 0
-1.52000 1.02000 0.32000 170 0 242 0.58628 -1.77245 1.58566 1.51635 -2.12026 -2.12026 -2.12026 1 0 0 0
1.52000 1.02000 0.32000 0 200 255 -1.77245 1.00512 1.77245 1.51635 -2.12026 -2.12026 -2.12026 1 0 0 0
0.32000 1.30000 -1.52000 0 202 46 -1.77245 1.03262 -1.13024 1.51635 -2.12026 -2.12026 -2.12026 1 0 0 0
-1.52000 1.30000 0.32000 170 0 242 0.58628 -1.77245 1.58566 1.51635 -2.12026 -2.12026 -2.12026 1 0 0 0
1.52000 1.30000 0.32000 0 200 255 -1.77245 1.00512 1.77245 1.51635 -2.12026 -2.12026 -2.12026 1 0 0 0
0.32000 1.58000 -1.52000 0 202 46 -1.77245 1.03262 -1.13024 1.51635 -2.12026 -2.12026 -2.12026 1 0 0 0
-1.52000 1.58000 0.32000 170 0 242 0.58628 -1.77245 1.58566 1.51635 -2.12026 -2.12026 -2.12026 1 0 0 0
1.52000 1.58000 0.32000 0 200 255 -1.77245 1.00512 1.77245 1.51635 -2.12026 -2.12026 -2.12026 1 0 0 0
0.32000 1.86000 -1.52000 0 202 46 -1.77245 1.03262 -1.13024 1.51635 -2.12026 -2.12026 -2.12026 1 0 0 0
-1.52000 1.86000 0.32000 170 0 242 0.58628 -1.77245 1.58566 1.51635 -2.12026 -2.12026 -2.12026 1 0 0 0
1.52000 1.86000 0.32000 0 200 255 -1.77245 1.00512 1.77245 1.51635 -2.12026 -2.12026 -2.12026 1 0 0 0
0.64000 0.18000 -1.52000 0 202 46 -1.77245 1.03262 -1.13024 1.51635 -2.12026 -2.12026 -2.12026 1 0 0 0
-1.52000 0.18000 0.64000 170 0 242 0.58628 -1.77245 1.58566 1.51635 -2.12026 -2.12026 -2.12026 1 0 0 0
1.52000 0.18000 0.64000 0 200 255 -1.77245 1.00512 1.77245 1.51635 -2.12026 -2.12026 -2.12026 1 0 0 0
0.64000 0.46000 -1.52000 0 202 46 -1.77245 1.03262 -1.13024 1.51635 -2.12026 -2.12026 -2.12026 1 0 0 0
-1.52000 0.46000 0.64000 170 0 242 0.58628 -1.77245 1.58566 1.51635 -2.12026 -2.12026 -2.12026 1 0 0 0
1.52000 0.46000 0.64000 0 200 255 -1.77245 1.00512 1.77245 1.51635 -2.12026 -2.12026 -2.12026 1 0 0 0
0.64000 0.74000 -1.52000 0 202 46 -1.77245 1.03262 -1.13024 1.51635 -2.12026 -2.12026 -2.12026 1 0 0 0
-1.52000 0.74000 0.64000 170 0 242 0.58628 -1.77245 1.58566 1.51635 -2.12026 -2.12026 -2.12026 1 0 0 0
1.52000 0.74000 0.64000 0 200 255 -1.77245 1.00512 1.77245 1.51635 -2.12026 -2.12026 -2.12026 1 0 0 0
0.64000 1.02000 -1.52000 0 202 46 -1.77245 1.03262 -1.13024 1.51635 -2.12026 -2.12026 -2.12026 1 0 0 0
-1.52000 1.02000 0.64000 170 0 242 0.58628 -1.77245 1.58566 1.51635 -2.12026 -2.12026 -2.12026 1 0 0 0
1.52000 1.02000 0.64000 0 200 255 -1.77245 1.00512 1.77245 1.51635 -2.12026 -2.12026 -2.12026 1 0 0 0
0.64000 1.30000 -1.52000 0 202 46 -1.77245 1.03262 -1.13024 1.51635 -2.12026 -2.12026 -2.12026 1 0 0 0
-1.52000 1.30000 0.64000 170 0 242 0.58628 -1.77245 1.58566 1.51635 -2.12026 -2.12026 -2.12026 1 0 0 0
1.52000 1.30000 0.64000 0 200 255 -1.77245 1.00512 1.77245 1.51635 -2.12026 -2.12026 -2.12026 1 0 0 0
0.64000 1.58000 -1.52000 0 202 46 -1.77245 1.03262 -1.13024 1.51635 -2.12026 -2.12026 -2.12026 1 0 0 0
-1.52000 1.58000 0.64000 170 0 242 0.58628 -1.77245 1.58566 1.51635 -2.12026 -2.12026 -2.12026 1 0 0 0
1.52000 1.58000 0.64000 0 200 255 -1.77245 1.00512 1.77245 1.51635 -2.12026 -2.12026 -2.12026 1 0 0 0
0.64000 1.86000 -1.52000 0 202 46 -1.77245 1.03262 -1.13024 1.51635 -2.12026 -2.12026 -2.12026 1 0 0 0
-1.52000 1.86000 0.64000 170 0 242 0.58628 -1.77245 1.58566 1.51635 -2.12026 -2.12026 -2.12026 1 0 0 0
1.52000 1.86000 0.64000 0 200 255 -1.77245 1.00512 1.77245 1.51635 -2.12026 -2.12026 -2.12026 1 0 0 0
0.96000 0.18000 -1.52000 0 202 46 -1.77245 1.03262 -1.13024 1.51635 -2.12026 -2.12026 -2.12026 1 0 0 0
-1.52000 0.18000 0.96000 170 0 242 0.58628 -1.77245 1.58566 1.51635 -2.12026 -2.12026 -2.12026 1 0 0 0
1.52000 0.18000 0.96000 0 200 255 -1.77245 1.00512 1.77245 1.51635 -2.12026 -2.12026 -2.12026 1 0 0 0
0.96000 0.46000 -1.52000 0 202 46 -1.77245 1.03262 -1.13024 1.51635 -2.12026 -2.12026 -2.12026 1 0 0 0
-1.52000 0.46000 0.96000 170 0 242 0.58628 -1.77245 1.58566 1.51635 -2.12026 -2.12026 -2.12026 1 0 0 0
1.52000 0.46000 0.96000 0 200 255 -1.77245 1.00512 1.77245 1.51635 -2.12026 -2.12026 -2.12026 1 0 0 0
0.96000 0.74000 -1.52000 0 202 46 -1.77245 1.03262 -1.13024 1.51635 -2.12026 -2.12026 -2.12026 1 0 0 0
-1.52000 0.74000 0.96000 170 0 242 0.58628 -1.77245 1.58566 1.51635 -2.12026 -2.12026 -2.12026 1 0 0 0
1.52000 0.74000 0.96000 0 200 255 -1.77245 1.00512 1.77245 1.51635 -2.12026 -2.12026 -2.12026 1 0 0 0
0.96000 1.02000 -1.52000 0 202 46 -1.77245 1.03262 -1.13024 1.51635 -2.12026 -2.12026 -2.12026 1 0 0 0
-1.52000 1.02000 0.96000 170 0 242 0.58628 -1.77245 1.58566 1.51635 -2.12026 -2.12026 -2.12026 1 0 0 0
1.52000 1.02000 0.96000 0 200 255 -1.77245 1.00512 1.77245 1.51635 -2.12026 -2.12026 -2.12026 1 0 0 0
0.96000 1.30000 -1.52000 0 202 46 -1.77245 1.03262 -1.13024 1.51635 -2.12026 -2.12026 -2.12026 1 0 0 0
-1.52000 1.30000 0.96000 170 0 242 0.58628 -1.77245 1.58566 1.51635 -2.12026 -2.12026 -2.12026 1 0 0 0
1.52000 1.30000 0.96000 0 200 255 -1.77245 1.00512 1.77245 1.51635 -2.12026 -2.12026 -2.12026 1 0 0 0
0.96000 1.58000 -1.52000 0 202 46 -1.77245 1.03262 -1.13024 1.51635 -2.12026 -2.12026 -2.12026 1 0 0 0
-1.52000 1.58000 0.96000 170 0 242 0.58628 -1.77245 1.58566 1.51635 -2.12026 -2.12026 -2.12026 1 0 0 0
1.52000 1.58000 0.96000 0 200 255 -1.77245 1.00512 1.77245 1.51635 -2.12026 -2.12026 -2.12026 1 0 0 0
0.96000 1.86000 -1.52000 0 202 46 -1.77245 1.03262 -1.13024 1.51635 -2.12026 -2.12026 -2.12026 1 0 0 0
-1.52000 1.86000 0.96000 170 0 242 0.58628 -1.77245 1.58566 1.51635 -2.12026 -2.12026 -2.12026 1 0 0 0
1.52000 1.86000 0.96000 0 200 255 -1.77245 1.00512 1.77245 1.51635 -2.12026 -2.12026 -2.12026 1 0 0 0
1.28000 0.18000 -1.52000 0 202 46 -1.77245 1.03262 -1.13024 1.51635 -2.12026 -2.12026 -2.12026 1 0 0 0
-1.52000 0.18000 1.28000 170 0 242 0.58628 -1.77245 1.58566 1.51635 -2.12026 -2.12026 -2.12026 1 0 0 0
1.52000 0.18000 1.28000 0 200 255 -1.77245 1.00512 1.77245 1.51635 -2.12026 -2.12026 -2.12026 1 0 0 0
1.28000 0.46000 -1.52000 0 202 46 -1.77245 1.03262 -1.13024 1.51635 -2.12026 -2.12026 -2.12026 1 0 0 0
-1.52000 0.46000 1.28000 170 0 242 0.58628 -1.77245 1.58566 1.51635 -2.12026 -2.12026 -2.12026 1 0 0 0
1.52000 0.46000 1.28000 0 200 255 -1.77245 1.00512 1.77245 1.51635 -2.12026 -2.12026 -2.12026 1 0 0 0
1.28000 0.74000 -1.52000 0 202 46 -1.77245 1.03262 -1.13024 1.51635 -2.12026 -2.12026 -2.12026 1 0 0 0
-1.52000 0.74000 1.28000 170 0 242 0.58628 -1.77245 1.58566 1.51635 -2.12026 -2.12026 -2.12026 1 0 0 0
1.52000 0.74000 1.28000 0 200 255 -1.77245 1.00512 1.77245 1.51635 -2.12026 -2.12026 -2.12026 1 0 0 0
1.28000 1.02000 -1.52000 0 202 46 -1.77245 1.03262 -1.13024 1.51635 -2.12026 -2.12026 -2.12026 1 0 0 0
-1.52000 1.02000 1.28000 170 0 242 0.58628 -1.77245 1.58566 1.51635 -2.12026 -2.12026 -2.12026 1 0 0 0
1.52000 1.02000 1.28000 0 200 255 -1.77245 1.00512 1.77245 1.51635 -2.12026 -2.12026 -2.12026 1 0 0 0
1.28000 1.30000 -1.52000 0 202 46 -1.77245 1.03262 -1.13024 1.51635 -2.12026 -2.12026 -2.12026 1 0 0 0
-1.52000 1.30000 1.28000 170 0 242 0.58628 -1.77245 1.58566 1.51635 -2.12026 -2.12026 -2.12026 1 0 0 0
1.52000 1.30000 1.28000 0 200 255 -1.77245 1.00512 1.77245 1.51635 -2.12026 -2.12026 -2.12026 1 0 0 0
1.28000 1.58000 -1.52000 0 202 46 -1.77245 1.03262 -1.13024 1.51635 -2.12026 -2.12026 -2.12026 1 0 0 0
-1.52000 1.58000 1.28000 170 0 242 0.58628 -1.77245 1.58566 1.51635 -2.12026 -2.12026 -2.12026 1 0 0 0
1.52000 1.58000 1.28000 0 200 255 -1.77245 1.00512 1.77245 1.51635 -2.12026 -2.12026 -2.12026 1 0 0 0
1.28000 1.86000 -1.52000 0 202 46 -1.77245 1.03262 -1.13024 1.51635 -2.12026 -2.12026 -2.12026 1 0 0 0
-1.52000 1.86000 1.28000 170 0 242 0.58628 -1.77245 1.58566 1.51635 -2.12026 -2.12026 -2.12026 1 0 0 0
1.52000 1.86000 1.28000 0 200 255 -1.77245 1.00512 1.77245 1.51635 -2.12026 -2.12026 -2.12026 1 0 0 0
-0.70000 0.25000 0.35000 255 72 0 1.77245 -0.76872 -1.77245 1.51635 -1.27297 -1.27297 -1.27297 1 0 0 0
-0.55000 0.40000 0.20000 255 72 0 1.77245 -0.76872 -1.77245 1.51635 -1.83258 -1.83258 -1.83258 1 0 0 0
0.75000 0.28000 0.25000 6 49 255 -1.69385 -1.09466 1.77245 1.51635 -1.20397 -1.20397 -1.20397 1 0 0 0
0.05000 0.35000 -0.55000 233 233 233 1.46440 1.46440 1.46440 1.51635 -1.34707 -1.34707 -1.34707 1 0 0 0
0.05000 0.62000 -0.55000 233 233 233 1.46440 1.46440 1.46440 1.51635 -1.83258 -1.83258 -1.83258 1 0 0 0
